<?xml version="1.0" encoding="utf-8"?>
<!-- Generator: Adobe Illustrator 16.0.0, SVG Export Plug-In . SVG Version: 6.00 Build 0)  -->
<!DOCTYPE svg PUBLIC "-//W3C//DTD SVG 1.1//EN" "http://www.w3.org/Graphics/SVG/1.1/DTD/svg11.dtd">
<svg version="1.1" id="Layer_1" xmlns="http://www.w3.org/2000/svg" xmlns:xlink="http://www.w3.org/1999/xlink" x="0px" y="0px"
	 width="347.24px" height="446.46px" viewBox="0 0 347.24 446.46" enable-background="new 0 0 347.24 446.46" xml:space="preserve">
<path fill="#010202" d="M263.189,62.007H84.052c-19.705,0-35.827,16.123-35.827,35.828v250.792
	c0,19.703,16.122,35.826,35.827,35.826h179.138c19.704,0,35.826-16.123,35.826-35.826V97.835
	C299.015,78.13,282.893,62.007,263.189,62.007z M101.965,330.712v-53.74l35.827,26.871L101.965,330.712z M245.274,330.712h-35.826
	c0,0,0-55.586,0-90.051c0-10.32-9.709-39.465-107.267,0.482C101.966,241.752,101.966,116,101.966,116l35.827-0.251v78.265
	c0,0,107.481-31.475,107.481,47.131V330.712z M227.505,151.576c-10.784,0-30.561-0.018-35.972-0.018
	c11.321-17.251,20.207-35.81,20.207-35.81h33.714C245.454,115.748,240.867,130.563,227.505,151.576z"/>
</svg>
